<svg width="114" height="114" viewBox="0 0 114 114" fill="none" xmlns="http://www.w3.org/2000/svg">
<circle cx="57" cy="57" r="54.5" fill="#D9D9D9" stroke="black" stroke-width="5"/>
<path d="M80.3217 39.8979C80.0582 38.3442 79.3179 36.911 78.2036 35.7967C77.0893 34.6824 75.6561 33.9422 74.1024 33.6787C66.6323 32.4117 52.5505 31.8325 42.1934 42.194C31.8363 52.5555 32.4109 66.6324 33.6778 74.1023C33.9421 75.6576 34.684 77.092 35.8006 78.2065C36.9171 79.3209 38.3529 80.0601 39.9087 80.3215C42.526 80.7679 45.1761 80.9949 47.8312 81C55.2367 81 64.4584 79.1539 71.8062 71.8062C82.1656 61.4493 81.5887 47.3678 80.3217 39.8979ZM66.1038 36.6671C68.5791 36.6758 71.0493 36.892 73.4885 37.3133C74.2873 37.4497 75.024 37.831 75.5966 38.4044C76.1692 38.9778 76.5495 39.715 76.6848 40.514C77.1609 43.2736 77.3695 46.0727 77.3078 48.8724L65.1253 36.6925C65.4484 36.674 65.7692 36.6694 66.1038 36.6694V36.6671ZM40.5133 76.6846C39.7145 76.5488 38.9775 76.168 38.4045 75.595C37.8315 75.022 37.4507 74.2851 37.3148 73.4862C36.8387 70.7266 36.63 67.9275 36.6917 65.1278L48.872 77.3077C46.0722 77.3706 43.2729 77.1619 40.5133 76.6846ZM69.1985 69.1985C66.5192 71.8754 61.5206 75.5977 53.6513 76.8762L37.1233 60.3485C38.4018 52.4793 42.1241 47.4809 44.8011 44.8017C47.4781 42.1225 52.4766 38.4002 60.346 37.1217L76.8763 53.6517C75.5978 61.5208 71.8754 66.5193 69.1985 69.1985ZM65.6861 48.314C66.0321 48.6602 66.2264 49.1296 66.2264 49.619C66.2264 50.1084 66.0321 50.5778 65.6861 50.924L62.3768 54.2309L63.8399 55.694C64.0223 55.8627 64.1688 56.0666 64.2705 56.2934C64.3723 56.5202 64.4272 56.7651 64.4319 57.0136C64.4367 57.2621 64.3912 57.509 64.2983 57.7395C64.2053 57.97 64.0668 58.1794 63.8909 58.355C63.7151 58.5307 63.5056 58.669 63.2751 58.7618C63.0445 58.8545 62.7975 58.8998 62.549 58.8948C62.3005 58.8898 62.0556 58.8347 61.8289 58.7328C61.6023 58.6309 61.3985 58.4842 61.2299 58.3016L59.7691 56.8409L56.8406 59.7693L58.3037 61.2324C58.4862 61.401 58.6329 61.6048 58.7348 61.8315C58.8367 62.0581 58.8919 62.303 58.8968 62.5515C58.9018 62.8 58.8566 63.047 58.7638 63.2775C58.6711 63.5081 58.5327 63.7176 58.357 63.8934C58.1814 64.0692 57.972 64.2078 57.7415 64.3007C57.511 64.3937 57.2641 64.4391 57.0156 64.4344C56.7671 64.4296 56.5222 64.3747 56.2954 64.273C56.0686 64.1713 55.8647 64.0248 55.6959 63.8424L54.2305 62.377L50.9212 65.6862C50.7515 65.8649 50.5477 66.0077 50.3219 66.1064C50.0961 66.205 49.8528 66.2575 49.6064 66.2606C49.36 66.2638 49.1155 66.2176 48.8872 66.1247C48.6589 66.0319 48.4516 65.8943 48.2773 65.7201C48.1031 65.5458 47.9655 65.3385 47.8726 65.1102C47.7798 64.8819 47.7336 64.6374 47.7367 64.391C47.7399 64.1446 47.7924 63.9013 47.891 63.6755C47.9897 63.4497 48.1325 63.246 48.3112 63.0762L51.6228 59.7693L50.1597 58.3062C49.836 57.9558 49.6605 57.4936 49.6701 57.0166C49.6796 56.5396 49.8735 56.0848 50.211 55.7476C50.5485 55.4104 51.0035 55.217 51.4805 55.2078C51.9575 55.1987 52.4195 55.3746 52.7697 55.6986L54.2328 57.1616L57.159 54.2309L55.6959 52.7678C55.3719 52.4176 55.196 51.9556 55.2052 51.4786C55.2143 51.0016 55.4078 50.5467 55.745 50.2092C56.0822 49.8717 56.537 49.6778 57.014 49.6682C57.491 49.6587 57.9532 49.8341 58.3037 50.1578L59.7691 51.6232L63.0784 48.314C63.4245 47.9687 63.8934 47.7748 64.3822 47.7748C64.8711 47.7748 65.34 47.9687 65.6861 48.314Z" fill="black"/>
</svg>
